<svg xmlns="http://www.w3.org/2000/svg" height="40px" width="40px" fill="#FFFFFF" viewBox="0 0 41 30" class="pla-svg-icon main-navigation-icon"><path d="M31.742 8.257A15.455 15.455 0 0 0 17.95.001c-6.905 0-14.047 4.607-14.047 12.316a8.747 8.747 0 0 0 4.826 7.718 1.532 1.532 0 0 0 2-.671l2.647-4.947 1.916 3.76a1.54 1.54 0 0 0 2.739 0l1.9-3.738 2.589 4.916a1.537 1.537 0 1 0 2.718-1.434l-3.97-7.541a1.558 1.558 0 0 0-1.37-.821 1.533 1.533 0 0 0-1.356.838l-1.88 3.694-1.882-3.69a1.534 1.534 0 0 0-2.721-.026L8.83 16.401a5.4 5.4 0 0 1-1.854-4.086c0-5.781 5.579-9.236 10.978-9.236a12.512 12.512 0 0 1 11.463 7.374 1.543 1.543 0 0 0 1.488.874 1.349 1.349 0 0 1 .229 0h.123A6.624 6.624 0 0 1 35.8 22.633a6.6 6.6 0 0 1-4.75 1.937 6.5 6.5 0 0 1-3.659-1.161 1.531 1.531 0 0 0-1.885.009 16.937 16.937 0 0 1-22.793-1.99 1.54 1.54 0 1 0-2.352 1.986 20.033 20.033 0 0 0 14.807 6.587 19.874 19.874 0 0 0 11.344-3.5 9.912 9.912 0 0 0 4.531 1.156 9.666 9.666 0 0 0 9.763-9.775 9.756 9.756 0 0 0-9.067-9.62z"></path></svg>