<svg xmlns="http://www.w3.org/2000/svg" fill="#FFFFFF" style="width:32px;height:32px;position:relative;margin:8px;top:1px;left:12px;float:left" viewBox="0 0 32 32" xml:space="preserve"><path d="M18.9 32h4.9c4.5 0 8.2-3.7 8.2-8.2V8.2C32 3.7 28.3 0 23.8 0h-5c-.1 0-.2.1-.2.2v31.6c0 .1.1.2.3.2zM25 14.4c1.8 0 3.2 1.5 3.2 3.2 0 1.8-1.5 3.2-3.2 3.2-1.8 0-3.2-1.4-3.2-3.2-.1-1.8 1.4-3.2 3.2-3.2zM15.2 0h-7C3.7 0 0 3.7 0 8.2v15.6C0 28.3 3.7 32 8.2 32h7c.1 0 .2-.1.2-.2V.2c0-.1-.1-.2-.2-.2zm-2.3 29.4H8.2c-3.1 0-5.6-2.5-5.6-5.6V8.2c0-3.1 2.5-5.6 5.6-5.6h4.6l.1 26.8zM5 9.6c0 1.7 1.3 3 3 3s3-1.3 3-3-1.3-3-3-3-3 1.3-3 3z" class="nav-icon-switch" fill="#999"/></svg>